<svg fill="#235784" height="20px" width="20px" version="1.1" id="Capa_1" xmlns="http://www.w3.org/2000/svg" xmlns:xlink="http://www.w3.org/1999/xlink" viewBox="0 0 463.568 463.568" xml:space="preserve"><g id="SVGRepo_bgCarrier" stroke-width="0"></g><g id="SVGRepo_tracerCarrier" stroke-linecap="round" stroke-linejoin="round"></g><g id="SVGRepo_iconCarrier"> <g> <path d="M453.828,204.213c-27.606-34.508-60.651-61.736-98.215-80.928c-38.963-19.907-80.625-30-123.828-30 s-84.865,10.094-123.828,30c-37.565,19.192-70.609,46.42-98.216,80.928c-12.987,16.233-12.987,38.909,0,55.143 c27.606,34.508,60.651,61.736,98.216,80.928c38.963,19.907,80.625,30,123.828,30s84.865-10.094,123.828-30 c37.564-19.192,70.609-46.42,98.215-80.928C466.814,243.122,466.814,220.446,453.828,204.213z M442.115,249.985 c-26.269,32.835-57.669,58.722-93.327,76.941c-36.83,18.817-76.196,28.358-117.003,28.358s-80.173-9.541-117.003-28.358 c-35.659-18.219-67.059-44.105-93.328-76.941c-8.573-10.717-8.573-25.686,0-36.402c26.269-32.835,57.669-58.722,93.328-76.941 c36.83-18.817,76.196-28.358,117.003-28.358s80.173,9.541,117.003,28.358c35.658,18.219,67.058,44.105,93.327,76.941 C450.687,224.299,450.687,239.268,442.115,249.985z"></path> <path d="M231.784,122.395c-60.317,0-109.389,49.072-109.389,109.389s49.072,109.389,109.389,109.389 c60.317,0,109.389-49.072,109.389-109.389S292.101,122.395,231.784,122.395z M231.784,326.172 c-52.046,0-94.389-42.343-94.389-94.389s42.343-94.389,94.389-94.389c52.046,0,94.389,42.343,94.389,94.389 S283.83,326.172,231.784,326.172z"></path> <path d="M264.534,166.062c-4.831,0-9.418,1.053-13.556,2.928c-6.288-1.937-12.733-2.928-19.193-2.928 c-36.239,0-65.722,29.483-65.722,65.722s29.483,65.722,65.722,65.722s65.722-29.483,65.722-65.722c0-6.463-0.986-12.91-2.925-19.2 c1.873-4.137,2.925-8.721,2.925-13.55C297.506,180.853,282.715,166.062,264.534,166.062z M282.506,199.034 c0,9.91-8.063,17.972-17.973,17.972c-9.91,0-17.972-8.063-17.972-17.972s8.063-17.972,17.972-17.972 C274.444,181.062,282.506,189.124,282.506,199.034z M231.784,282.506c-27.968,0-50.722-22.754-50.722-50.722 s22.754-50.722,50.722-50.722c1.654,0,3.308,0.095,4.959,0.263c-3.274,5.12-5.181,11.194-5.181,17.71 c0,18.181,14.791,32.972,32.972,32.972c6.515,0,12.59-1.907,17.71-5.182c0.168,1.651,0.262,3.305,0.262,4.959 C282.506,259.752,259.752,282.506,231.784,282.506z"></path> </g> </g></svg>