<svg fill="#235784" height="56px" width="56px" version="1.1" id="Capa_1" xmlns="http://www.w3.org/2000/svg" xmlns:xlink="http://www.w3.org/1999/xlink" viewBox="0 0 419.063 419.063" xml:space="preserve"><g id="SVGRepo_bgCarrier" stroke-width="0"></g><g id="SVGRepo_tracerCarrier" stroke-linecap="round" stroke-linejoin="round"></g><g id="SVGRepo_iconCarrier"> <path id="XMLID_66_" d="M263.169,268.655h9.526c4.418,0,8,3.582,8,8s-3.582,8-8,8h-9.526c-4.418,0-8-3.582-8-8 S258.751,268.655,263.169,268.655z M121.802,108.344c0-10.082,1.745-20.022,5.078-29.393c0.119-0.444,0.277-0.881,0.476-1.306 c3.138-8.402,7.562-16.324,13.156-23.45V8c0-4.418,3.582-8,8-8h122.165c4.418,0,8,3.582,8,8v46.354 c12.006,15.371,18.583,34.417,18.583,53.989c0,32.146-17.589,60.987-44.345,76.26l-2.755,14.1c-0.746,3.818-4.093,6.467-7.843,6.467 c-0.509,0-1.024-0.049-1.543-0.15c-4.336-0.847-7.165-5.049-6.317-9.386l0.656-3.356c-2.77,0.843-5.599,1.552-8.486,2.123 c-4.335,0.855-8.542-1.963-9.399-6.297s1.963-8.542,6.297-9.399c33.454-6.611,57.735-36.203,57.735-70.361 c0-13.699-3.941-27.083-11.232-38.535c-15.355,15.766-37.592,27.6-61.412,32.373c-25.137,5.037-49.752,1.854-69.255-8.691 c-1.03,4.855-1.559,9.833-1.559,14.853c0,34.159,24.281,63.75,57.735,70.361c4.334,0.856,7.154,5.064,6.297,9.399 c-0.857,4.335-5.071,7.152-9.399,6.297c-2.888-0.571-5.718-1.281-8.487-2.123l0.656,3.357c0.847,4.336-1.981,8.538-6.318,9.385 c-4.334,0.849-8.538-1.981-9.385-6.318l-2.754-14.099C139.392,169.33,121.802,140.49,121.802,108.344z M156.512,49.025h106.165V16 H156.512V49.025z M144.521,78.045c32.651,19.745,79.105,10,107.109-13.02h-99.266C149.282,69.091,146.657,73.458,144.521,78.045z M311.216,243.417v104.03c0,3.083-1.771,5.892-4.554,7.22l-63.164,30.148l0.342,5.001c0.178,2.605-0.927,5.134-2.959,6.773 L215.21,417.29c-1.462,1.179-3.241,1.772-5.022,1.772c-0.219,0-0.438-0.009-0.656-0.027c-1.996,0.165-4.036-0.421-5.678-1.746 l-25.673-20.701c-2.033-1.639-3.138-4.168-2.96-6.774l0.342-5.002l-63.162-30.147c-2.783-1.328-4.554-4.137-4.554-7.22v-104.03 c0-3.034,1.716-5.806,4.431-7.16l40.246-20.066c1.108-0.553,2.331-0.84,3.569-0.84h21.549l11.351-9.674 c1.447-1.233,3.287-1.911,5.189-1.911h30.699c1.902,0,3.742,0.678,5.189,1.911l11.352,9.675l21.55-0.001 c1.239,0,2.461,0.288,3.57,0.84l40.244,20.066C309.501,237.611,311.216,240.383,311.216,243.417z M184.623,252.416l-9.225-7.862 c-1.784-1.52-2.811-3.746-2.811-6.089v-7.115h-14.611l-34.13,17.017V342.4l52.891,25.245L184.623,252.416z M227.593,386.75 l-0.419-6.126c-0.008-0.094-0.014-0.187-0.019-0.28l-8.146-119.052h-18.957l-8.142,118.971c-0.006,0.147-0.016,0.293-0.03,0.441 l-0.414,6.045l18.064,14.565L227.593,386.75z M230.476,227.045l-8.542-7.28h-24.806l-8.542,7.28v7.727l9.443,8.048 c0.023,0.019,0.046,0.039,0.068,0.058l2.834,2.415h17.197l12.347-10.521V227.045z M295.216,248.367l-34.128-17.017h-14.613v7.115 c0,2.344-1.027,4.569-2.811,6.089l-9.225,7.861l7.884,115.23l52.893-25.246V248.367z"></path> </g></svg>